<svg width="194" height="198" viewBox="0 0 194 198" fill="none" xmlns="http://www.w3.org/2000/svg">
<rect width="194" height="197.207" rx="45" fill="black"/>
<path d="M124.92 87.9091V102.114H66.1136V87.9091H124.92ZM83.7273 197V72.8523C83.7273 66.6023 85.1951 61.3939 88.1307 57.2273C91.0663 53.0606 94.8778 49.9356 99.5653 47.8523C104.253 45.7689 109.201 44.7273 114.409 44.7273C118.528 44.7273 121.89 45.0587 124.494 45.7216C127.098 46.3845 129.04 47 130.318 47.5682L125.489 62.0568C124.636 61.7727 123.453 61.4176 121.938 60.9915C120.47 60.5653 118.528 60.3523 116.114 60.3523C110.574 60.3523 106.573 61.749 104.111 64.5426C101.696 67.3362 100.489 71.4318 100.489 76.8295V197H83.7273Z" fill="white"/>
</svg>
