<svg width="152" height="152" viewBox="0 0 152 152" fill="none" xmlns="http://www.w3.org/2000/svg">
<circle cx="76" cy="76" r="76" fill="#E0E0E0"/>
<circle cx="76" cy="56" r="26" fill="black"/>
<path d="M113.168 98.9206C120.77 105.828 125.595 115.936 126.385 129.483C120.552 131.128 115.866 134.099 111.529 136.848C110.141 137.728 108.789 138.586 107.446 139.37C100.73 143.291 92.216 147 76.5 147C55.5082 147 41.6504 138.122 32.5148 132.269C31.6502 131.715 30.8279 131.188 30.0459 130.698C30.5242 116.308 34.7224 105.789 41.7556 98.7556C49.2374 91.2737 60.6648 87 76.5 87C92.3445 87 104.762 91.2836 113.168 98.9206Z" stroke="black" stroke-width="10"/>
</svg>
