<svg width="181" height="28" viewBox="0 0 181 28" fill="none" xmlns="http://www.w3.org/2000/svg">
<path d="M0.170455 27V0.818181H9.01705C11.071 0.818181 12.75 1.18892 14.054 1.9304C15.3665 2.66335 16.3381 3.65625 16.9688 4.90909C17.5994 6.16193 17.9148 7.55966 17.9148 9.10227C17.9148 10.6449 17.5994 12.0469 16.9688 13.3082C16.3466 14.5696 15.3835 15.5753 14.0795 16.3253C12.7756 17.0668 11.1051 17.4375 9.06818 17.4375H2.72727V14.625H8.96591C10.3722 14.625 11.5014 14.3821 12.3537 13.8963C13.206 13.4105 13.8239 12.7543 14.2074 11.9276C14.5994 11.0923 14.7955 10.1506 14.7955 9.10227C14.7955 8.05398 14.5994 7.11648 14.2074 6.28977C13.8239 5.46307 13.2017 4.81534 12.3409 4.34659C11.4801 3.86932 10.3381 3.63068 8.91477 3.63068H3.34091V27H0.170455ZM44.0902 9H40.9197C40.7322 8.08807 40.4041 7.28693 39.9354 6.59659C39.4751 5.90625 38.9126 5.3267 38.2479 4.85795C37.5916 4.38068 36.8629 4.02273 36.0618 3.78409C35.2607 3.54545 34.4254 3.42614 33.5561 3.42614C31.9709 3.42614 30.5348 3.8267 29.2479 4.62784C27.9695 5.42898 26.951 6.60938 26.1925 8.16903C25.4425 9.72869 25.0675 11.642 25.0675 13.9091C25.0675 16.1761 25.4425 18.0895 26.1925 19.6491C26.951 21.2088 27.9695 22.3892 29.2479 23.1903C30.5348 23.9915 31.9709 24.392 33.5561 24.392C34.4254 24.392 35.2607 24.2727 36.0618 24.0341C36.8629 23.7955 37.5916 23.4418 38.2479 22.973C38.9126 22.4957 39.4751 21.9119 39.9354 21.2216C40.4041 20.5227 40.7322 19.7216 40.9197 18.8182H44.0902C43.8516 20.1562 43.4169 21.3537 42.7862 22.4105C42.1555 23.4673 41.3715 24.3665 40.434 25.108C39.4965 25.8409 38.4439 26.3991 37.2763 26.7827C36.1172 27.1662 34.8771 27.358 33.5561 27.358C31.3232 27.358 29.3374 26.8125 27.5987 25.7216C25.8601 24.6307 24.4922 23.0795 23.495 21.0682C22.4979 19.0568 21.9993 16.6705 21.9993 13.9091C21.9993 11.1477 22.4979 8.76136 23.495 6.75C24.4922 4.73864 25.8601 3.1875 27.5987 2.09659C29.3374 1.00568 31.3232 0.460226 33.5561 0.460226C34.8771 0.460226 36.1172 0.651988 37.2763 1.03551C38.4439 1.41903 39.4965 1.98153 40.434 2.72301C41.3715 3.45596 42.1555 4.35085 42.7862 5.40767C43.4169 6.45596 43.8516 7.65341 44.0902 9ZM60.0543 12.5028V15.3153H48.5998V12.5028H60.0543ZM65.772 0.818181H69.5561L78.4538 22.5511H78.7607L87.6584 0.818181H91.4425V27H88.4766V7.10795H88.2209L80.0391 27H77.1754L68.9936 7.10795H68.7379V27H65.772V0.818181ZM103.169 27.4602C101.924 27.4602 100.795 27.2259 99.7809 26.7571C98.7667 26.2798 97.9613 25.5938 97.3647 24.6989C96.7681 23.7955 96.4698 22.7045 96.4698 21.4261C96.4698 20.3011 96.6914 19.3892 97.1346 18.6903C97.5778 17.983 98.1701 17.429 98.9116 17.0284C99.6531 16.6278 100.471 16.3295 101.366 16.1335C102.27 15.929 103.177 15.767 104.089 15.6477C105.282 15.4943 106.25 15.3793 106.991 15.3026C107.741 15.2173 108.287 15.0767 108.627 14.8807C108.977 14.6847 109.152 14.3437 109.152 13.858V13.7557C109.152 12.4943 108.806 11.5142 108.116 10.8153C107.434 10.1165 106.399 9.76705 105.01 9.76705C103.569 9.76705 102.44 10.0824 101.622 10.7131C100.804 11.3437 100.228 12.017 99.896 12.733L97.0323 11.7102C97.5437 10.517 98.2255 9.58807 99.0778 8.9233C99.9386 8.25 100.876 7.78125 101.89 7.51705C102.913 7.24432 103.919 7.10795 104.907 7.10795C105.538 7.10795 106.262 7.18466 107.081 7.33807C107.907 7.48295 108.704 7.78551 109.471 8.24574C110.247 8.70597 110.89 9.40057 111.402 10.3295C111.913 11.2585 112.169 12.5028 112.169 14.0625V27H109.152V24.3409H108.998C108.794 24.767 108.453 25.223 107.975 25.7088C107.498 26.1946 106.863 26.608 106.071 26.9489C105.278 27.2898 104.311 27.4602 103.169 27.4602ZM103.629 24.75C104.822 24.75 105.828 24.5156 106.646 24.0469C107.473 23.5781 108.095 22.973 108.512 22.2315C108.939 21.4901 109.152 20.7102 109.152 19.892V17.1307C109.024 17.2841 108.743 17.4247 108.308 17.5526C107.882 17.6719 107.387 17.7784 106.825 17.8722C106.271 17.9574 105.73 18.0341 105.201 18.1023C104.681 18.1619 104.26 18.2131 103.936 18.2557C103.152 18.358 102.419 18.5241 101.737 18.7543C101.064 18.9759 100.518 19.3125 100.1 19.7642C99.6914 20.2074 99.4869 20.8125 99.4869 21.5795C99.4869 22.6278 99.8746 23.4205 100.65 23.9574C101.434 24.4858 102.427 24.75 103.629 24.75ZM131.585 11.7614L128.874 12.5284C128.704 12.0767 128.452 11.6378 128.12 11.2116C127.796 10.777 127.353 10.419 126.79 10.1378C126.228 9.85653 125.508 9.71591 124.63 9.71591C123.428 9.71591 122.427 9.9929 121.626 10.5469C120.833 11.0923 120.437 11.7869 120.437 12.6307C120.437 13.3807 120.71 13.973 121.255 14.4077C121.8 14.8423 122.653 15.2045 123.812 15.4943L126.727 16.2102C128.482 16.6364 129.79 17.2884 130.651 18.1662C131.512 19.0355 131.942 20.1562 131.942 21.5284C131.942 22.6534 131.619 23.6591 130.971 24.5455C130.332 25.4318 129.437 26.1307 128.286 26.642C127.136 27.1534 125.798 27.4091 124.272 27.4091C122.269 27.4091 120.612 26.9744 119.299 26.1051C117.987 25.2358 117.156 23.9659 116.806 22.2955L119.67 21.5795C119.942 22.6364 120.458 23.429 121.217 23.9574C121.984 24.4858 122.985 24.75 124.221 24.75C125.627 24.75 126.744 24.4517 127.57 23.8551C128.406 23.25 128.823 22.5256 128.823 21.6818C128.823 21 128.585 20.429 128.107 19.9688C127.63 19.5 126.897 19.1506 125.908 18.9205L122.636 18.1534C120.837 17.7273 119.516 17.0668 118.673 16.1719C117.837 15.2685 117.42 14.1392 117.42 12.7841C117.42 11.6761 117.731 10.696 118.353 9.84375C118.984 8.99148 119.84 8.32244 120.923 7.83665C122.013 7.35085 123.249 7.10795 124.63 7.10795C126.573 7.10795 128.099 7.53409 129.207 8.38636C130.323 9.23864 131.116 10.3636 131.585 11.7614ZM145.024 7.36364V9.92045H134.848V7.36364H145.024ZM137.814 2.65909H140.831V21.375C140.831 22.2273 140.954 22.8665 141.201 23.2926C141.457 23.7102 141.781 23.9915 142.173 24.1364C142.574 24.2727 142.995 24.3409 143.439 24.3409C143.771 24.3409 144.044 24.3239 144.257 24.2898C144.47 24.2472 144.64 24.2131 144.768 24.1875L145.382 26.8977C145.177 26.9744 144.892 27.0511 144.525 27.1278C144.159 27.2131 143.694 27.2557 143.132 27.2557C142.279 27.2557 141.444 27.0724 140.626 26.706C139.816 26.3395 139.143 25.7812 138.606 25.0312C138.078 24.2812 137.814 23.3352 137.814 22.1932V2.65909ZM157.584 27.4091C155.692 27.4091 154.06 26.9915 152.688 26.1562C151.324 25.3125 150.272 24.1364 149.53 22.6278C148.797 21.1108 148.431 19.3466 148.431 17.3352C148.431 15.3239 148.797 13.5511 149.53 12.017C150.272 10.4744 151.303 9.27273 152.624 8.41193C153.953 7.54261 155.505 7.10795 157.277 7.10795C158.3 7.10795 159.31 7.27841 160.307 7.61932C161.304 7.96023 162.212 8.5142 163.03 9.28125C163.848 10.0398 164.5 11.0455 164.986 12.2983C165.472 13.5511 165.715 15.0937 165.715 16.9261V18.2045H150.578V15.5966H162.647C162.647 14.4886 162.425 13.5 161.982 12.6307C161.547 11.7614 160.925 11.0753 160.115 10.5724C159.314 10.0696 158.368 9.81818 157.277 9.81818C156.076 9.81818 155.036 10.1165 154.158 10.7131C153.289 11.3011 152.62 12.0682 152.151 13.0142C151.682 13.9602 151.448 14.9744 151.448 16.0568V17.7955C151.448 19.2784 151.703 20.5355 152.215 21.5668C152.735 22.5895 153.455 23.3693 154.375 23.9062C155.296 24.4347 156.365 24.6989 157.584 24.6989C158.377 24.6989 159.093 24.5881 159.732 24.3665C160.38 24.1364 160.938 23.7955 161.407 23.3438C161.875 22.8835 162.238 22.3125 162.493 21.6307L165.408 22.4489C165.101 23.4375 164.586 24.3068 163.861 25.0568C163.137 25.7983 162.242 26.3778 161.176 26.7955C160.111 27.2045 158.914 27.4091 157.584 27.4091ZM170.304 27V7.36364H173.219V10.3295H173.424C173.782 9.35795 174.429 8.5696 175.367 7.96449C176.304 7.35937 177.361 7.05682 178.537 7.05682C178.759 7.05682 179.036 7.06108 179.368 7.0696C179.701 7.07812 179.952 7.09091 180.123 7.10795V10.1761C180.02 10.1506 179.786 10.1122 179.419 10.0611C179.061 10.0014 178.682 9.97159 178.282 9.97159C177.327 9.97159 176.475 10.1719 175.725 10.5724C174.983 10.9645 174.395 11.5099 173.961 12.2088C173.534 12.8991 173.321 13.6875 173.321 14.5739V27H170.304Z" fill="black"/>
</svg>
